<svg width="20" height="20" viewBox="0 0 20 20" fill="none" xmlns="http://www.w3.org/2000/svg">
<g id="Checkbox / Archive">
<path id="Vector" d="M18.0884 4.40916L15.5892 1.91083C15.433 1.75454 15.2211 1.66671 15.0001 1.66666H5.00008C4.77909 1.66671 4.56716 1.75454 4.41092 1.91083L1.91175 4.40916C1.83411 4.48656 1.77251 4.57851 1.73047 4.67975C1.68842 4.781 1.66677 4.88954 1.66675 4.99916V15.8333C1.66675 16.7525 2.41425 17.5 3.33341 17.5H16.6667C17.5859 17.5 18.3334 16.7525 18.3334 15.8333V4.99916C18.3334 4.88954 18.3117 4.781 18.2697 4.67975C18.2277 4.57851 18.1661 4.48656 18.0884 4.40916ZM5.34508 3.33333H14.6551L15.4876 4.16583H4.51258L5.34508 3.33333ZM3.33341 15.8333V5.8325H16.6667L16.6684 15.8333H3.33341Z" fill="#979797"/>
<path id="Vector_2" d="M12.4999 10H7.49992V8.33334H5.83325V11.6667H14.1666V8.33334H12.4999V10Z" fill="#979797"/>
</g>
</svg>
